<?xml version="1.0" standalone="no"?>
<svg viewBox="0 0 200 200" xmlns="http://www.w3.org/2000/svg">
  <path fill="#6D83F2" d="M23.3,-40.3C32.9,-34.8,45.3,-34,56,-28.1C66.7,-22.2,75.8,-11.1,77.2,0.8C78.7,12.8,72.5,25.6,63.5,34.3C54.4,43,42.3,47.7,31.2,56.4C20.2,65.1,10.1,77.7,-0.7,78.9C-11.5,80.2,-23,70,-28.5,58.1C-34,46.2,-33.5,32.6,-41.4,22.7C-49.3,12.7,-65.6,6.4,-73.2,-4.4C-80.8,-15.1,-79.7,-30.2,-69.5,-36.3C-59.3,-42.3,-40.1,-39.3,-27,-42.8C-14,-46.2,-7,-56.2,-0.1,-56.1C6.8,-56,13.7,-45.7,23.3,-40.3Z" transform="translate(100 100)" />
</svg>
