<svg id="visual" viewBox="0 0 960 540" width="960" height="540" xmlns="http://www.w3.org/2000/svg" xmlns:xlink="http://www.w3.org/1999/xlink" version="1.1"><g><g transform="translate(70 196)"><path d="M0 -12.8L12.8 0L0 12.8L-12.8 0Z" fill="none" stroke="#ecf1f8" stroke-width="2"></path></g><g transform="translate(185 192)"><path d="M0 -9L9 0L0 9L-9 0Z" fill="none" stroke="#ecf1f8" stroke-width="2"></path></g><g transform="translate(9 403)"><path d="M0 -11L11 0L0 11L-11 0Z" fill="none" stroke="#ecf1f8" stroke-width="2"></path></g><g transform="translate(529 337)"><path d="M0 -10L10 0L0 10L-10 0Z" fill="none" stroke="#ecf1f8" stroke-width="2"></path></g><g transform="translate(486 308)"><path d="M0 -9L9 0L0 9L-9 0Z" fill="none" stroke="#ecf1f8" stroke-width="2"></path></g><g transform="translate(525 140)"><path d="M0 -9L9 0L0 9L-9 0Z" fill="none" stroke="#ecf1f8" stroke-width="2"></path></g><g transform="translate(782 450)"><path d="M0 -10L10 0L0 10L-10 0Z" fill="none" stroke="#ecf1f8" stroke-width="2"></path></g><g transform="translate(78 401)"><path d="M0 -9L9 0L0 9L-9 0Z" fill="none" stroke="#ecf1f8" stroke-width="2"></path></g><g transform="translate(840 417)"><path d="M0 -11L11 0L0 11L-11 0Z" fill="none" stroke="#ecf1f8" stroke-width="2"></path></g><g transform="translate(597 15)"><path d="M0 -10L10 0L0 10L-10 0Z" fill="none" stroke="#ecf1f8" stroke-width="2"></path></g><g transform="translate(50 512)"><path d="M0 -11L11 0L0 11L-11 0Z" fill="none" stroke="#ecf1f8" stroke-width="2"></path></g><g transform="translate(844 258)"><path d="M0 -9L9 0L0 9L-9 0Z" fill="none" stroke="#ecf1f8" stroke-width="2"></path></g><g transform="translate(209 278)"><path d="M0 -9L9 0L0 9L-9 0Z" fill="none" stroke="#ecf1f8" stroke-width="2"></path></g><g transform="translate(552 506)"><path d="M0 -9L9 0L0 9L-9 0Z" fill="none" stroke="#ecf1f8" stroke-width="2"></path></g><g transform="translate(185 515)"><path d="M0 -11L11 0L0 11L-11 0Z" fill="none" stroke="#ecf1f8" stroke-width="2"></path></g><g transform="translate(504 100)"><path d="M0 -11L11 0L0 11L-11 0Z" fill="none" stroke="#ecf1f8" stroke-width="2"></path></g><g transform="translate(70 124)"><path d="M0 -9L9 0L0 9L-9 0Z" fill="none" stroke="#ecf1f8" stroke-width="2"></path></g><g transform="translate(354 371)"><path d="M0 -11L11 0L0 11L-11 0Z" fill="none" stroke="#ecf1f8" stroke-width="2"></path></g><g transform="translate(653 2)"><path d="M0 -9L9 0L0 9L-9 0Z" fill="none" stroke="#ecf1f8" stroke-width="2"></path></g><g transform="translate(10 243)"><path d="M0 -10L10 0L0 10L-10 0Z" fill="none" stroke="#ecf1f8" stroke-width="2"></path></g><g transform="translate(110 32)"><path d="M0 -10L10 0L0 10L-10 0Z" fill="none" stroke="#ecf1f8" stroke-width="2"></path></g><g transform="translate(486 125)"><path d="M0 -11L11 0L0 11L-11 0Z" fill="none" stroke="#ecf1f8" stroke-width="2"></path></g><g transform="translate(243 147)"><path d="M0 -11L11 0L0 11L-11 0Z" fill="none" stroke="#ecf1f8" stroke-width="2"></path></g><g transform="translate(514 261)"><path d="M0 -11L11 0L0 11L-11 0Z" fill="none" stroke="#ecf1f8" stroke-width="2"></path></g></g></svg>