<?xml version="1.0" encoding="UTF-8"?>
<svg preserveAspectRatio="none" version="1.1" viewBox="0 0 1440 560" xmlns="http://www.w3.org/2000/svg">
<g fill="rgba(96, 150, 186, 0.5)" mask="url(#a)">
<path class="triangle-float3" fill="#FED766" d="m1202 478.39a167.1 167.1 0 1 0 334.2 0 167.1 167.1 0 1 0-334.2 0z"/>
<path class="triangle-float1" d="m1369.3 179.13c35.326 0.518 70.49-15.165 87.459-46.153 16.423-29.991 8.022-66.161-10.066-95.178-16.931-27.161-45.409-43.945-77.393-45.124-34.355-1.267-70.198 9.589-87.955 39.026-18.249 30.252-13.271 68.432 4.83 98.773 17.63 29.552 48.718 48.151 83.125 48.656"/>
<path class="triangle-float3" d="m96.71 226.25a181.04 181.04 0 1 0 362.08 0 181.04 181.04 0 1 0-362.08 0z"/>
<path class="triangle-float1" d="m799.74 271.67a109.26 109.26 0 1 0 218.52 0 109.26 109.26 0 1 0-218.52 0z"/>
</g>
<defs>
<mask id="a">
<rect width="1440" height="560" fill="#fff"/>
</mask>
<style>@keyframes float1 {
                0%{transform: translate(0, 0)}
                50%{transform: translate(-10px, 0)}
                100%{transform: translate(0, 0)}
            }

            .triangle-float1 {
                animation: float1 5s infinite;
            }

            @keyframes float2 {
                0%{transform: translate(0, 0)}
                50%{transform: translate(-5px, -5px)}
                100%{transform: translate(0, 0)}
            }

            .triangle-float2 {
                animation: float2 4s infinite;
            }

            @keyframes float3 {
                0%{transform: translate(0, 0)}
                50%{transform: translate(0, -10px)}
                100%{transform: translate(0, 0)}
            }

            .triangle-float3 {
                animation: float3 6s infinite;
            }</style>
</defs>
</svg>
